<svg xmlns:dc="http://purl.org/dc/elements/1.1/" xmlns:cc="http://creativecommons.org/ns#" xmlns:rdf="http://www.w3.org/1999/02/22-rdf-syntax-ns#" xmlns:svg="http://www.w3.org/2000/svg" xmlns="http://www.w3.org/2000/svg" viewBox="0 0 666.66669 666.66669" height="666.66669" width="666.66669" xml:space="preserve" id="svg2" version="1.1"><metadata id="metadata8"><rdf:RDF><cc:Work rdf:about=""><dc:format>image/svg+xml</dc:format><dc:type rdf:resource="http://purl.org/dc/dcmitype/StillImage"/></cc:Work></rdf:RDF></metadata><defs id="defs6"/><g transform="matrix(1.3333333,0,0,-1.3333333,0,666.66667)" id="g10"><g transform="scale(0.1)" id="g12"><path id="path14" style="fill:#231f20;fill-opacity:0;fill-rule:nonzero;stroke:none" d="M 5000,0 H 0 V 5000 H 5000 V 0"/><path id="path34" style="fill:#cda26f;fill-opacity:1;fill-rule:nonzero;stroke:none" d="m 2363.45,1805.88 h -13.99 v 15.16 h -34.32 v -23.06 h 29.66 v -14.37 h -29.66 v -21.89 h 34.32 v 15.16 h 13.99 v -29.54 h -74.99 v 13.73 h 11.14 v 60.61 h -11.14 v 13.73 h 74.99 v -29.53"/><path id="path36" style="fill:#cda26f;fill-opacity:1;fill-rule:nonzero;stroke:none" d="m 2436.88,1797.21 c 17.35,-2.85 27.45,-10.89 27.45,-25.52 0,-16.19 -12.18,-26.16 -32.25,-26.16 -13.21,0 -22.28,4.27 -28.23,11 v -9.19 h -14.51 v 28.75 h 14.51 c 7.38,-10.36 13.59,-16.32 27.97,-16.32 9.84,0 16.45,4.41 16.45,11.14 0,5.05 -3.24,10.23 -13.86,11.92 l -16.97,2.85 c -17.6,2.72 -26.02,11.78 -26.02,25.12 0,16.06 12.3,26.56 32.37,26.56 11.01,0 19.94,-3.11 25.91,-9.59 v 7.64 h 13.34 v -26.03 h -14.25 c -4.27,7.77 -11.01,14.51 -24.22,14.51 -10.88,0 -16.84,-4.67 -16.84,-12.31 0,-7.13 5.32,-10.49 15.54,-12.18 l 13.61,-2.19"/><path id="path38" style="fill:#cda26f;fill-opacity:1;fill-rule:nonzero;stroke:none" d="m 2568.96,1805.88 h -13.98 v 15.16 h -19.04 v -59.97 h 14.76 v -13.73 h -45.06 v 13.73 h 14.76 v 59.97 h -19.04 v -15.16 h -13.98 v 29.53 h 81.58 v -29.53"/><path id="path40" style="fill:#cda26f;fill-opacity:1;fill-rule:nonzero;stroke:none" d="m 2636.43,1835.41 c 26.94,0 46.88,-18.52 46.88,-43.65 0,-25.51 -19.94,-44.42 -46.88,-44.42 h -44.16 v 13.73 h 11.14 v 60.61 h -11.14 v 13.73 z m 0,-73.69 c 17.49,0 31.08,13.08 31.08,30.04 0,16.58 -13.59,29.28 -31.08,29.28 h -17.48 v -59.32 h 17.48"/><path id="path42" style="fill:#cda26f;fill-opacity:1;fill-rule:nonzero;stroke:none" d="m 2386.11,1606.74 h -60.35 v 13.73 h 23.18 v 57.76 l -22.01,-6.99 v 13.21 l 28.62,10.35 h 8.93 v -74.33 h 21.63 v -13.73"/><path id="path44" style="fill:#cda26f;fill-opacity:1;fill-rule:nonzero;stroke:none" d="m 2468.47,1665.8 c 0,-7.64 -2.84,-13.86 -7.9,-21.89 l -12.69,8.68 c 4.01,5.69 5.69,9.19 5.69,13.86 0,9.59 -7.76,17.87 -18.9,17.87 -11.01,0 -18.78,-8.28 -18.78,-18 0,-9.84 7.65,-18.01 18.78,-18.01 5.05,0 9.59,1.42 12.82,4.01 0.26,0.27 13.08,-8.41 13.08,-8.41 l -27.46,-37.17 h -17.99 l 19.94,28.1 h -0.52 c -19.56,0 -33.54,12.95 -33.54,30.57 0,17.74 13.98,31.35 33.67,31.35 19.94,0 33.8,-13.87 33.8,-30.96"/><path id="path46" style="fill:#cda26f;fill-opacity:1;fill-rule:nonzero;stroke:none" d="m 2558.34,1631.35 c 0,-15.55 -13.07,-26.55 -34.32,-26.55 -21.24,0 -34.32,11 -34.32,26.55 0,9.84 5.32,17.48 14.64,21.89 -7,3.88 -11.14,10.23 -11.14,18.65 0,14.63 12.69,24.87 30.82,24.87 18.01,0 30.71,-10.24 30.71,-24.87 0,-8.42 -4.16,-14.77 -11.02,-18.65 9.33,-4.41 14.63,-12.05 14.63,-21.89 z m -16.96,1.42 c 0,8.03 -7.12,14.25 -17.36,14.25 -10.23,0 -17.35,-6.09 -17.35,-14.25 0,-8.41 7.12,-14.89 17.35,-14.89 10.24,0 17.36,6.6 17.36,14.89 z m -33.02,38.21 c 0,-7.77 6.34,-13.73 15.66,-13.73 9.2,0 15.68,6.09 15.68,13.73 0,7.65 -6.48,13.6 -15.68,13.6 -9.32,0 -15.66,-5.83 -15.66,-13.6"/><path id="path48" style="fill:#cda26f;fill-opacity:1;fill-rule:nonzero;stroke:none" d="m 2644.34,1606.74 h -63.21 v 8.03 c 0.26,0.13 29.53,28.88 29.53,28.88 10.88,10.49 15.28,17.62 15.28,25.13 0,7.76 -5.18,14.63 -15.02,14.63 -9.06,0 -15.54,-5.83 -15.54,-14.63 h -14.25 c 0,16.7 12.43,27.98 30.31,27.98 18.52,0 30.04,-11.92 30.04,-27.46 0,-11.02 -5.31,-20.34 -18.38,-33.16 l -16.07,-15.67 h 37.31 v -13.73"/><path id="path50" style="fill:#cda26f;fill-opacity:1;fill-rule:nonzero;stroke:none" d="m 3036.73,2714.96 65.97,17.67 c 6.05,-34.85 10.22,-70.34 12.49,-106.19 l -65.33,-11.63 c -2.77,33.8 -7.13,67.27 -13.13,100.15 z m -6.84,249.63 -59.93,-35.82 c 12.91,-27.71 24.29,-56.45 34.14,-86 0,0 62.95,30.37 62.95,30.37 -10.72,31.49 -23.1,62.06 -37.16,91.45 z m -156.58,217.71 -46.3,-51.89 c 21.62,-20.18 43.59,-44.04 62.6,-68.55 l 52.28,45.33 c -21.32,27.13 -44.23,52.25 -68.58,75.11 z m -1016.73,-555.86 65.31,-11.63 c 2.78,33.8 7.15,67.27 13.14,100.15 l -65.96,17.67 c -6.05,-34.85 -10.23,-70.34 -12.49,-106.19 z m 48.13,246.7 c 0.01,0 62.95,-30.37 62.95,-30.37 9.85,29.55 21.23,58.29 34.15,86 l -59.95,35.82 c -14.04,-29.39 -26.44,-59.96 -37.15,-91.45 z m 1141.55,-474.45 c -1.71,-15.15 -3.66,-30.29 -5.98,-45.36 -0.01,0.03 53.54,-7.98 53.54,-7.98 4.28,19.85 7.92,39.77 11.04,59.75 -18.57,-0.24 -38.11,-2.39 -58.6,-6.41 z m -171.24,505.34 c 52.18,-104.91 79.27,-227.04 82.71,-352.26 14.71,4.38 29.23,8.21 43.52,11.38 -4.99,131.54 -34.57,256.29 -86.48,360.65 -61.62,123.89 -150.2,210.48 -257.29,254.28 -4.26,-14.29 -8.5,-28.65 -12.71,-43.07 95.42,-40.5 174.62,-119.13 230.25,-230.98 z m -133.75,307.73 58.28,90.74 c 111.99,-67.64 206.62,-172.12 272.52,-305.85 64.73,-131.37 96.54,-276.81 96.97,-425.52 15.35,-2.39 30.24,-5.72 44.65,-9.98 0.67,161.83 -33.89,317.31 -101.8,455.12 -61.76,125.36 -149.55,229.82 -253.86,302.11 -41.45,28.71 -85.56,52.31 -131.59,70.58 -5.13,-13.8 -10.2,-27.89 -15.21,-42.28 16.77,-6.77 33.26,-14.29 49.45,-22.55 l -34.66,-53.94 c -11.56,5.73 -23.27,10.97 -35.13,15.83 -4.53,-13.99 -9.03,-28.16 -13.49,-42.47 15.52,-6.49 30.78,-13.76 45.73,-21.91 z m 454.88,-826.8 c -9.22,5.29 -22.47,11.13 -40.22,15.18 -28.72,-184.22 -104.21,-367.15 -223.8,-528.61 l -103.29,79.37 c 85.83,120.37 143.22,272.24 164.2,433.73 -15.29,-4.98 -31,-10.85 -47.14,-17.64 -23.2,-149.2 -79.16,-292.92 -165.52,-407.06 l -13.29,-17.57 173.34,-133.21 13.53,17.61 c 128.97,167.83 212.95,359.04 244.99,556.5 -0.93,0.57 -1.84,1.14 -2.8,1.7 z m -1325.27,-3.4 c 2.17,-12.1 4.47,-24.18 7.07,-36.21 l 53.53,7.98 c -0.62,4.08 -1.16,8.19 -1.74,12.28 -21.04,6.8 -40.75,12.22 -58.86,15.95 z m 162.07,-54.92 c -16.63,6.93 -32.83,13.48 -48.54,19.49 24.61,-147.05 79.53,-284.47 158.51,-395.23 l -103.29,-79.37 c -116.81,157.69 -191.52,335.86 -221.7,515.72 -16.7,-0.18 -31.69,-1.53 -45.15,-3.84 32.02,-197.52 116.02,-388.78 245.01,-556.65 l 13.53,-17.61 173.35,133.21 -13.29,17.57 c -78.55,103.81 -131.95,232.1 -158.43,366.71 z m 256.25,789.78 c 56.44,31.49 119.49,48.6 187.44,50.02 4.34,14.94 8.67,29.77 13.01,44.49 -1.25,0.01 -2.5,0.07 -3.77,0.07 -89.11,0 -170.68,-23.87 -241.63,-69.37 14.28,-9.36 29.31,-17.78 44.95,-25.21 z m -171.59,-93.91 c -22.35,-29.66 -42.64,-62.58 -60.62,-98.71 -56.08,-112.76 -86.1,-249.33 -87.19,-392.55 14.34,-4.4 28.94,-9.23 43.87,-14.53 -1.03,137.37 26.04,272.63 83.08,387.31 16.94,34.06 36.1,64.99 57.2,92.75 -12.51,8.11 -24.65,16.68 -36.34,25.73 z m -127.89,145.02 c -4.92,8.42 -9.49,16.92 -13.84,25.49 -44.79,-52.25 -83.94,-111.65 -116.02,-176.75 -69,-140.05 -103.54,-298.36 -101.71,-463.02 14.08,1.95 28.94,3.27 44.6,3.86 -1.58,153.57 30.18,304.04 96.94,439.53 28.23,57.3 61.75,109.2 99.63,155.16 -3.3,5.18 -6.5,10.43 -9.6,15.73 z m 555.38,219.92 c 4.99,14.61 10.03,29 15.15,43.14 -24.57,2.79 -49.38,4.2 -74.37,4.2 -133.54,0 -262.23,-40.25 -372.14,-116.41 -1.53,-1.07 -3.02,-2.2 -4.54,-3.27 4.63,-14.61 10.43,-28.95 17.38,-42.95 14.86,10.8 30.07,20.94 45.63,30.34 l 58.29,-90.74 18.14,9.88 c 72.77,39.66 152.58,59.75 237.24,59.75 8.32,0 16.56,-0.24 24.77,-0.63 4.54,14.72 9.1,29.29 13.69,43.69 -12.72,0.86 -25.53,1.35 -38.46,1.35 -85.11,0 -165.79,-18.7 -240.14,-55.61 l -34.65,53.94 c 84.51,43.17 177.57,66.26 274.79,66.26 19.94,0 39.68,-1.03 59.22,-2.94"/><path id="path52" style="fill:#ffffff;fill-opacity:1;fill-rule:nonzero;stroke:none" d="m 3366.84,2298.51 c 0,-124.43 -81.82,-215.3 -210.05,-241.66 10.5,23.07 20.32,46.37 29.39,69.88 76.07,29 121.46,90.36 121.46,171.78 0,39.93 -21.98,99.15 -83.91,134.62 -54.62,31.27 -180.6,63.6 -410.67,-71.35 l -29.95,51.05 c 101.64,59.63 195.5,94.78 278.98,104.49 73.78,8.58 138.05,-2.46 191.06,-32.83 69.07,-39.55 113.69,-112.56 113.69,-185.98 z m -948.08,666.7 c 5.7,19.58 11.33,39.04 16.87,58.34 -144.86,7.26 -277.57,83.21 -346.87,201.84 -72.99,124.95 -64.68,274.88 22.79,411.34 l -49.84,31.95 c -99.9,-155.86 -108.67,-328.32 -24.07,-473.15 42.74,-73.17 106.56,-133.51 184.58,-174.53 60.43,-31.77 127.36,-50.63 196.54,-55.79 z m 533.67,768.89 c 22.57,0 96.2,-8.26 96.2,-114.58 0,-84.31 -40.58,-194.57 -106.66,-295.41 15.24,-12.68 30.06,-26.02 44.46,-40 75.05,112.37 121.4,238.23 121.4,335.41 0,137.18 -97.67,173.78 -155.4,173.78 -110.01,0 -200.86,-75.91 -277.73,-232.07 -65.78,-133.64 -116.99,-312.69 -171.19,-502.27 -63.63,-222.5 -132.63,-463.73 -233.74,-651.5 2.64,-1.21 5.27,-2.41 7.92,-3.63 15.24,-7.01 30.65,-14.07 46.2,-21.19 19.67,36.7 38.71,76.31 57.16,118.92 72.54,167.52 126.85,357.46 179.38,541.13 101.67,355.57 197.71,691.41 392,691.41 z m -296,-666.69 c -11.74,-5.38 -23.54,-10.33 -35.42,-14.74 -2.42,-8.42 -4.82,-16.83 -7.22,-25.24 -4.14,-14.48 -8.3,-28.99 -12.47,-43.54 37.5,10.71 74.38,25.65 110.52,44.77 -17.54,14.89 -36.06,27.82 -55.41,38.75 z M 2254.52,2353.4 c -173.64,79.74 -323.6,148.6 -432.72,148.6 -115.51,0 -181.49,-43.52 -216.5,-80.02 -41.1,-42.84 -64.66,-102.45 -64.66,-163.54 0,-118.08 95.4,-243.58 272.19,-243.58 7.34,0 14.63,0.18 21.9,0.47 -9.67,19.44 -18.85,39.06 -27.5,58.85 -136.15,2.47 -207.39,93.88 -207.39,184.26 0,85.04 58.13,184.36 221.96,184.36 96.18,0 240.69,-66.36 408.01,-143.21 171.58,-78.79 363.17,-166.78 565.01,-214.83 9.61,17.64 18.64,35.84 27.04,54.52 -201.13,45.97 -394.56,134.76 -567.34,214.12 z m -107.34,-207.81 c 29.3,26.52 57.36,57.18 84.31,92.16 -8.31,3.82 -16.6,7.62 -24.82,11.4 -10.22,4.7 -20.4,9.37 -30.54,14.01 -16.7,-20.91 -34.19,-40.36 -52.46,-58.28 7.19,-20.25 15.04,-40.02 23.51,-59.29"/></g></g></svg>