<svg width="42" height="69" viewBox="0 0 42 69" fill="none" xmlns="http://www.w3.org/2000/svg">
<g clip-path="url(#clip0)">
<path d="M20.9673 0C14.1552 0 8.61328 5.54192 8.61328 12.354V29.646C8.61328 36.4581 14.1552 42 20.9673 42C27.7794 42 33.3214 36.4581 33.3214 29.646V12.354C33.3214 5.54192 27.7794 0 20.9673 0ZM30.8015 29.646C30.8015 35.0684 26.3897 39.4801 20.9673 39.4801C15.5449 39.4801 11.1332 35.0684 11.1332 29.646V12.354C11.1332 6.93164 15.5449 2.5199 20.9673 2.5199C26.3897 2.5199 30.8015 6.93164 30.8015 12.354V29.646Z" fill="#ffb300"/>
<path d="M20.9676 8.35501C20.2717 8.35501 19.7077 8.91898 19.7077 9.61496V15.4142C19.7077 16.1098 20.2717 16.6741 20.9676 16.6741C21.6633 16.6741 22.2276 16.1098 22.2276 15.4142V9.61496C22.2276 8.91898 21.6636 8.35501 20.9676 8.35501Z" fill="#ffb300"/>
</g>
<path d="M21.3293 58.1037L26.8643 52.5533C27.0455 52.3715 27.0452 52.0771 26.8634 51.8955C26.6815 51.7141 26.3869 51.7146 26.2055 51.8965L21 57.1164L15.7944 51.8963C15.613 51.7144 15.3186 51.7139 15.1368 51.8953C15.0456 51.9863 15 52.1056 15 52.2248C15 52.3437 15.0453 52.4625 15.1358 52.5533L20.6707 58.1037C20.7578 58.1913 20.8764 58.2404 21 58.2404C21.1235 58.2404 21.242 58.1911 21.3293 58.1037Z" fill="#ffb300"/>
<path d="M21.3293 62.1037L26.8643 56.5533C27.0455 56.3715 27.0452 56.0771 26.8634 55.8955C26.6815 55.7141 26.3869 55.7146 26.2055 55.8965L21 61.1164L15.7944 55.8963C15.613 55.7144 15.3186 55.7139 15.1368 55.8953C15.0456 55.9863 15 56.1056 15 56.2248C15 56.3437 15.0453 56.4625 15.1358 56.5533L20.6707 62.1037C20.7578 62.1913 20.8764 62.2404 21 62.2404C21.1235 62.2404 21.242 62.1911 21.3293 62.1037Z" fill="#ffb300"/>
<path d="M21.3293 66.1037L26.8643 60.5533C27.0455 60.3715 27.0452 60.0771 26.8634 59.8955C26.6815 59.7141 26.3869 59.7146 26.2055 59.8965L21 65.1164L15.7944 59.8963C15.613 59.7144 15.3186 59.7139 15.1368 59.8953C15.0456 59.9863 15 60.1056 15 60.2248C15 60.3437 15.0453 60.4625 15.1358 60.5533L20.6707 66.1037C20.7578 66.1913 20.8764 66.2404 21 66.2404C21.1235 66.2404 21.242 66.1911 21.3293 66.1037Z" fill="#ffb300"/>
<defs>
<clipPath id="clip0">
<rect width="42" height="42" fill="white"/>
</clipPath>
</defs>
</svg>
